{
  "asset": {
    "generator": "glTF-Transform v4.2.1",
    "version": "2.0"
  },
  "accessors": [
    {
      "type": "VEC3",
      "componentType": 5126,
      "count": 195,
      "bufferView": 0,
      "byteOffset": 0
    },
    {
      "type": "VEC3",
      "componentType": 5126,
      "count": 195,
      "max": [
        0.009678195230662823,
        0.014421452768146992,
        -0.0012351596960797906
      ],
      "min": [
        -0.009678195230662823,
        -0.004793806932866573,
        -0.009844700805842876
      ],
      "bufferView": 0,
      "byteOffset": 12
    },
    {
      "type": "VEC2",
      "componentType": 5126,
      "count": 195,
      "bufferView": 0,
      "byteOffset": 24
    },
    {
      "type": "SCALAR",
      "componentType": 5123,
      "count": 273,
      "bufferView": 1,
      "byteOffset": 0
    },
    {
      "type": "SCALAR",
      "componentType": 5123,
      "count": 273,
      "bufferView": 1,
      "byteOffset": 548
    },
    {
      "type": "SCALAR",
      "componentType": 5123,
      "count": 78,
      "bufferView": 1,
      "byteOffset": 1096
    },
    {
      "type": "SCALAR",
      "componentType": 5123,
      "count": 318,
      "bufferView": 1,
      "byteOffset": 1252
    },
    {
      "type": "SCALAR",
      "componentType": 5123,
      "count": 318,
      "bufferView": 1,
      "byteOffset": 1888
    },
    {
      "type": "VEC3",
      "componentType": 5126,
      "count": 195,
      "bufferView": 2,
      "byteOffset": 0
    },
    {
      "type": "VEC3",
      "componentType": 5126,
      "count": 195,
      "max": [
        0.009678195230662823,
        0.014421452768146992,
        0.009844700805842876
      ],
      "min": [
        -0.009678195230662823,
        -0.004793806932866573,
        0.0012351595796644688
      ],
      "bufferView": 2,
      "byteOffset": 12
    },
    {
      "type": "VEC2",
      "componentType": 5126,
      "count": 195,
      "bufferView": 2,
      "byteOffset": 24
    },
    {
      "type": "VEC3",
      "componentType": 5126,
      "count": 52,
      "bufferView": 3,
      "byteOffset": 0
    },
    {
      "type": "VEC3",
      "componentType": 5126,
      "count": 52,
      "max": [
        0.009678195230662823,
        0.014421452768146992,
        0.0012351595796644688
      ],
      "min": [
        -0.009678195230662823,
        -0.004793806932866573,
        -0.0012351596960797906
      ],
      "bufferView": 3,
      "byteOffset": 12
    },
    {
      "type": "VEC2",
      "componentType": 5126,
      "count": 52,
      "bufferView": 3,
      "byteOffset": 24
    },
    {
      "type": "VEC3",
      "componentType": 5126,
      "count": 202,
      "bufferView": 4,
      "byteOffset": 0
    },
    {
      "type": "VEC3",
      "componentType": 5126,
      "count": 202,
      "max": [
        0.0021774540655314922,
        -0.0006444716127589345,
        0.0021774540655314922
      ],
      "min": [
        -0.0021774540655314922,
        -0.0050395214930176735,
        -0.002177454298362136
      ],
      "bufferView": 4,
      "byteOffset": 12
    },
    {
      "type": "VEC2",
      "componentType": 5126,
      "count": 202,
      "bufferView": 4,
      "byteOffset": 24
    },
    {
      "type": "VEC3",
      "componentType": 5126,
      "count": 204,
      "bufferView": 5,
      "byteOffset": 0
    },
    {
      "type": "VEC3",
      "componentType": 5126,
      "count": 204,
      "max": [
        0.0019901904743164778,
        -0.005039520561695099,
        0.0019901904743164778
      ],
      "min": [
        -0.0019901904743164778,
        -0.005233539268374443,
        -0.0019901904743164778
      ],
      "bufferView": 5,
      "byteOffset": 12
    },
    {
      "type": "VEC2",
      "componentType": 5126,
      "count": 204,
      "bufferView": 5,
      "byteOffset": 24
    }
  ],
  "bufferViews": [
    {
      "buffer": 0,
      "byteOffset": 0,
      "byteLength": 6240,
      "byteStride": 32,
      "target": 34962
    },
    {
      "buffer": 0,
      "byteOffset": 6240,
      "byteLength": 2524,
      "target": 34963
    },
    {
      "buffer": 0,
      "byteOffset": 8764,
      "byteLength": 6240,
      "byteStride": 32,
      "target": 34962
    },
    {
      "buffer": 0,
      "byteOffset": 15004,
      "byteLength": 1664,
      "byteStride": 32,
      "target": 34962
    },
    {
      "buffer": 0,
      "byteOffset": 16668,
      "byteLength": 6464,
      "byteStride": 32,
      "target": 34962
    },
    {
      "buffer": 0,
      "byteOffset": 23132,
      "byteLength": 6528,
      "byteStride": 32,
      "target": 34962
    }
  ],
  "buffers": [
    {
      "uri": "buffer.bin",
      "byteLength": 29660
    }
  ],
  "materials": [
    {
      "name": "Material.003",
      "extras": {
        "fromFBX": {
          "shadingModel": "Phong",
          "isTruePBR": false
        }
      },
      "pbrMetallicRoughness": {
        "baseColorFactor": [
          0.800000071525574,
          0.0132042113691568,
          0,
          1
        ],
        "roughnessFactor": 0.140570566058159,
        "metallicFactor": 0.400000005960464
      }
    },
    {
      "name": "Material.001",
      "extras": {
        "fromFBX": {
          "shadingModel": "Phong",
          "isTruePBR": false
        }
      },
      "pbrMetallicRoughness": {
        "baseColorFactor": [
          0.800000011920929,
          0.800000011920929,
          0.800000011920929,
          1
        ],
        "roughnessFactor": 0.272165536880493,
        "metallicFactor": 0.400000005960464
      }
    },
    {
      "name": "Material.002",
      "extras": {
        "fromFBX": {
          "shadingModel": "Phong",
          "isTruePBR": false
        }
      },
      "pbrMetallicRoughness": {
        "baseColorFactor": [
          0,
          0,
          0,
          1
        ],
        "roughnessFactor": 0.272165536880493,
        "metallicFactor": 0.400000005960464
      }
    },
    {
      "name": "Material.004",
      "extras": {
        "fromFBX": {
          "shadingModel": "Phong",
          "isTruePBR": false
        }
      },
      "pbrMetallicRoughness": {
        "baseColorFactor": [
          0,
          0,
          0,
          1
        ],
        "roughnessFactor": 0.163312271237373,
        "metallicFactor": 0.400000005960464
      }
    },
    {
      "name": "Material.005",
      "extras": {
        "fromFBX": {
          "shadingModel": "Phong",
          "isTruePBR": false
        }
      },
      "pbrMetallicRoughness": {
        "baseColorFactor": [
          0.800000011920929,
          0.800000011920929,
          0.800000011920929,
          1
        ],
        "metallicFactor": 0.400000005960464
      }
    }
  ],
  "meshes": [
    {
      "primitives": [
        {
          "attributes": {
            "NORMAL": 0,
            "POSITION": 1,
            "TEXCOORD_0": 2
          },
          "mode": 4,
          "material": 0,
          "indices": 3
        }
      ]
    },
    {
      "primitives": [
        {
          "attributes": {
            "NORMAL": 8,
            "POSITION": 9,
            "TEXCOORD_0": 10
          },
          "mode": 4,
          "material": 1,
          "indices": 4
        }
      ]
    },
    {
      "primitives": [
        {
          "attributes": {
            "NORMAL": 11,
            "POSITION": 12,
            "TEXCOORD_0": 13
          },
          "mode": 4,
          "material": 2,
          "indices": 5
        }
      ]
    },
    {
      "primitives": [
        {
          "attributes": {
            "NORMAL": 14,
            "POSITION": 15,
            "TEXCOORD_0": 16
          },
          "mode": 4,
          "material": 3,
          "indices": 6
        }
      ]
    },
    {
      "primitives": [
        {
          "attributes": {
            "NORMAL": 17,
            "POSITION": 18,
            "TEXCOORD_0": 19
          },
          "mode": 4,
          "material": 4,
          "indices": 7
        }
      ]
    }
  ],
  "nodes": [
    {
      "name": "Root_Scene",
      "children": [
        1
      ]
    },
    {
      "name": "RootNode",
      "extras": {
        "name": "RootNode"
      },
      "children": [
        2
      ]
    },
    {
      "name": "Sphere",
      "extras": {
        "name": "Sphere"
      },
      "translation": [
        -1.21855547874361e-9,
        -8.14689649075717e-9,
        0.46721750497818
      ],
      "rotation": [
        1.3767878922156743e-7,
        0.7071068407911771,
        -0.7071067215818857,
        -1.3767877029817655e-7
      ],
      "scale": [
        99.99999315430067,
        99.99999657715095,
        99.99999657714982
      ],
      "children": [
        3,
        4,
        5,
        6,
        7
      ]
    },
    {
      "name": "Sphere_1",
      "mesh": 0
    },
    {
      "name": "Sphere_2",
      "mesh": 1
    },
    {
      "name": "Sphere_3",
      "mesh": 2
    },
    {
      "name": "Sphere_4",
      "mesh": 3
    },
    {
      "name": "Sphere_5",
      "mesh": 4
    }
  ],
  "scenes": [
    {
      "name": "AuxScene",
      "nodes": [
        0
      ]
    }
  ],
  "scene": 0
}